<mxfile host="app.diagrams.net" agent="Mozilla/5.0 (Windows NT 10.0; Win64; x64) AppleWebKit/537.36 (KHTML, like Gecko) Chrome/135.0.0.0 Safari/537.36" version="26.2.15">
  <diagram name="Page-1" id="sUw2DEdPK-OLrel1bW1F">
    <mxGraphModel dx="1426" dy="743" grid="1" gridSize="10" guides="1" tooltips="1" connect="1" arrows="1" fold="1" page="1" pageScale="1" pageWidth="850" pageHeight="1100" math="0" shadow="0">
      <root>
        <mxCell id="0" />
        <mxCell id="1" parent="0" />
        <mxCell id="A1Dh8gjikv63k6UlgLe9-1" value="Gateway" style="rounded=1;whiteSpace=wrap;html=1;" vertex="1" parent="1">
          <mxGeometry x="320" y="230" width="120" height="60" as="geometry" />
        </mxCell>
        <mxCell id="A1Dh8gjikv63k6UlgLe9-2" value="Order Service" style="rounded=1;whiteSpace=wrap;html=1;" vertex="1" parent="1">
          <mxGeometry x="160" y="390" width="120" height="60" as="geometry" />
        </mxCell>
        <mxCell id="A1Dh8gjikv63k6UlgLe9-3" value="Inventory Service" style="rounded=1;whiteSpace=wrap;html=1;" vertex="1" parent="1">
          <mxGeometry x="530" y="390" width="120" height="60" as="geometry" />
        </mxCell>
        <mxCell id="A1Dh8gjikv63k6UlgLe9-4" value="GraphQL" style="rounded=1;whiteSpace=wrap;html=1;" vertex="1" parent="1">
          <mxGeometry x="370" y="350" width="120" height="60" as="geometry" />
        </mxCell>
        <mxCell id="A1Dh8gjikv63k6UlgLe9-10" value="" style="group" vertex="1" connectable="0" parent="1">
          <mxGeometry x="490" y="130" width="120" height="70" as="geometry" />
        </mxCell>
        <mxCell id="A1Dh8gjikv63k6UlgLe9-8" value="" style="rounded=1;whiteSpace=wrap;html=1;labelPosition=center;verticalLabelPosition=top;align=center;verticalAlign=bottom;" vertex="1" parent="A1Dh8gjikv63k6UlgLe9-10">
          <mxGeometry width="120" height="70" as="geometry" />
        </mxCell>
        <mxCell id="A1Dh8gjikv63k6UlgLe9-6" value="WebUI" style="image;sketch=0;aspect=fixed;html=1;points=[];align=center;fontSize=12;image=img/lib/mscae/Managed_Desktop.svg;" vertex="1" parent="A1Dh8gjikv63k6UlgLe9-10">
          <mxGeometry x="35" y="10" width="50" height="36" as="geometry" />
        </mxCell>
        <mxCell id="A1Dh8gjikv63k6UlgLe9-12" value="" style="group" vertex="1" connectable="0" parent="1">
          <mxGeometry x="137" y="121.5" width="120" height="87" as="geometry" />
        </mxCell>
        <mxCell id="A1Dh8gjikv63k6UlgLe9-11" value="" style="rounded=1;whiteSpace=wrap;html=1;" vertex="1" parent="A1Dh8gjikv63k6UlgLe9-12">
          <mxGeometry width="120" height="87" as="geometry" />
        </mxCell>
        <mxCell id="A1Dh8gjikv63k6UlgLe9-7" value="Mobile App" style="image;sketch=0;aspect=fixed;html=1;points=[];align=center;fontSize=12;image=img/lib/mscae/App_Service_Mobile_App.svg;" vertex="1" parent="A1Dh8gjikv63k6UlgLe9-12">
          <mxGeometry x="43" y="11.5" width="34" height="50" as="geometry" />
        </mxCell>
        <mxCell id="A1Dh8gjikv63k6UlgLe9-26" value="" style="group;movable=1;resizable=1;rotatable=1;deletable=1;editable=1;locked=0;connectable=1;" vertex="1" connectable="0" parent="1">
          <mxGeometry x="370" y="460" width="60" height="50" as="geometry" />
        </mxCell>
        <mxCell id="A1Dh8gjikv63k6UlgLe9-13" value="" style="strokeWidth=2;dashed=0;align=center;fontSize=8;shape=rect;fillColor=#fffbc0;strokeColor=#000000;movable=0;resizable=0;rotatable=0;deletable=0;editable=0;locked=1;connectable=0;" vertex="1" parent="A1Dh8gjikv63k6UlgLe9-26">
          <mxGeometry x="23.5" width="13" height="10" as="geometry" />
        </mxCell>
        <mxCell id="A1Dh8gjikv63k6UlgLe9-14" value="" style="strokeWidth=2;dashed=0;align=center;fontSize=8;shape=rect;fillColor=#fffbc0;strokeColor=#000000;movable=0;resizable=0;rotatable=0;deletable=0;editable=0;locked=1;connectable=0;" vertex="1" parent="A1Dh8gjikv63k6UlgLe9-26">
          <mxGeometry y="10" width="13" height="10" as="geometry" />
        </mxCell>
        <mxCell id="A1Dh8gjikv63k6UlgLe9-15" value="" style="strokeWidth=2;dashed=0;align=center;fontSize=8;shape=rect;fillColor=#fffbc0;strokeColor=#000000;movable=0;resizable=0;rotatable=0;deletable=0;editable=0;locked=1;connectable=0;" vertex="1" parent="A1Dh8gjikv63k6UlgLe9-26">
          <mxGeometry x="47" y="10" width="13" height="10" as="geometry" />
        </mxCell>
        <mxCell id="A1Dh8gjikv63k6UlgLe9-16" value="" style="strokeWidth=2;dashed=0;align=center;fontSize=8;shape=rect;fillColor=#fffbc0;strokeColor=#000000;movable=0;resizable=0;rotatable=0;deletable=0;editable=0;locked=1;connectable=0;" vertex="1" parent="A1Dh8gjikv63k6UlgLe9-26">
          <mxGeometry y="30" width="13" height="10" as="geometry" />
        </mxCell>
        <mxCell id="A1Dh8gjikv63k6UlgLe9-17" value="" style="strokeWidth=2;dashed=0;align=center;fontSize=8;shape=rect;fillColor=#fffbc0;strokeColor=#000000;movable=0;resizable=0;rotatable=0;deletable=0;editable=0;locked=1;connectable=0;" vertex="1" parent="A1Dh8gjikv63k6UlgLe9-26">
          <mxGeometry x="47" y="30" width="13" height="10" as="geometry" />
        </mxCell>
        <mxCell id="A1Dh8gjikv63k6UlgLe9-18" value="" style="strokeWidth=2;dashed=0;align=center;fontSize=8;shape=rect;fillColor=#fffbc0;strokeColor=#000000;movable=0;resizable=0;rotatable=0;deletable=0;editable=0;locked=1;connectable=0;" vertex="1" parent="A1Dh8gjikv63k6UlgLe9-26">
          <mxGeometry x="23.5" y="40" width="13" height="10" as="geometry" />
        </mxCell>
        <mxCell id="A1Dh8gjikv63k6UlgLe9-19" value="" style="strokeWidth=2;dashed=0;align=center;fontSize=8;shape=rect;fillColor=#c0f5a9;strokeColor=#000000;movable=0;resizable=0;rotatable=0;deletable=0;editable=0;locked=1;connectable=0;" vertex="1" parent="A1Dh8gjikv63k6UlgLe9-26">
          <mxGeometry x="23.5" y="20" width="13" height="10" as="geometry" />
        </mxCell>
        <mxCell id="A1Dh8gjikv63k6UlgLe9-20" value="" style="edgeStyle=none;endArrow=none;dashed=0;html=1;strokeWidth=2;rounded=0;movable=0;resizable=0;rotatable=0;deletable=0;editable=0;locked=1;connectable=0;" edge="1" source="A1Dh8gjikv63k6UlgLe9-19" target="A1Dh8gjikv63k6UlgLe9-13" parent="A1Dh8gjikv63k6UlgLe9-26">
          <mxGeometry relative="1" as="geometry" />
        </mxCell>
        <mxCell id="A1Dh8gjikv63k6UlgLe9-21" value="" style="edgeStyle=none;endArrow=none;dashed=0;html=1;strokeWidth=2;rounded=0;movable=0;resizable=0;rotatable=0;deletable=0;editable=0;locked=1;connectable=0;" edge="1" source="A1Dh8gjikv63k6UlgLe9-19" target="A1Dh8gjikv63k6UlgLe9-14" parent="A1Dh8gjikv63k6UlgLe9-26">
          <mxGeometry relative="1" as="geometry" />
        </mxCell>
        <mxCell id="A1Dh8gjikv63k6UlgLe9-22" value="" style="edgeStyle=none;endArrow=none;dashed=0;html=1;strokeWidth=2;rounded=0;movable=0;resizable=0;rotatable=0;deletable=0;editable=0;locked=1;connectable=0;" edge="1" source="A1Dh8gjikv63k6UlgLe9-19" target="A1Dh8gjikv63k6UlgLe9-15" parent="A1Dh8gjikv63k6UlgLe9-26">
          <mxGeometry relative="1" as="geometry" />
        </mxCell>
        <mxCell id="A1Dh8gjikv63k6UlgLe9-23" value="" style="edgeStyle=none;endArrow=none;dashed=0;html=1;strokeWidth=2;rounded=0;movable=0;resizable=0;rotatable=0;deletable=0;editable=0;locked=1;connectable=0;" edge="1" source="A1Dh8gjikv63k6UlgLe9-19" target="A1Dh8gjikv63k6UlgLe9-16" parent="A1Dh8gjikv63k6UlgLe9-26">
          <mxGeometry relative="1" as="geometry" />
        </mxCell>
        <mxCell id="A1Dh8gjikv63k6UlgLe9-24" value="" style="edgeStyle=none;endArrow=none;dashed=0;html=1;strokeWidth=2;rounded=0;movable=0;resizable=0;rotatable=0;deletable=0;editable=0;locked=1;connectable=0;" edge="1" source="A1Dh8gjikv63k6UlgLe9-19" target="A1Dh8gjikv63k6UlgLe9-17" parent="A1Dh8gjikv63k6UlgLe9-26">
          <mxGeometry relative="1" as="geometry" />
        </mxCell>
        <mxCell id="A1Dh8gjikv63k6UlgLe9-25" value="" style="edgeStyle=none;endArrow=none;dashed=0;html=1;strokeWidth=2;rounded=0;movable=0;resizable=0;rotatable=0;deletable=0;editable=0;locked=1;connectable=0;" edge="1" source="A1Dh8gjikv63k6UlgLe9-19" target="A1Dh8gjikv63k6UlgLe9-18" parent="A1Dh8gjikv63k6UlgLe9-26">
          <mxGeometry relative="1" as="geometry" />
        </mxCell>
        <mxCell id="A1Dh8gjikv63k6UlgLe9-28" value="" style="rounded=1;whiteSpace=wrap;html=1;" vertex="1" parent="1">
          <mxGeometry x="330" y="600" width="120" height="60" as="geometry" />
        </mxCell>
      </root>
    </mxGraphModel>
  </diagram>
</mxfile>
